<svg xmlns="http://www.w3.org/2000/svg" viewBox="0 0 100 100" width="128" height="128">
  <!-- Glowing Dark Background -->
  <rect width="100" height="100" rx="22" fill="#07090e" stroke="rgba(0, 242, 254, 0.15)" stroke-width="2" />
  
  <!-- Outer glowing shield outline -->
  <path d="M50 20 L22 34 V58 C22 75 50 86 50 86 C50 86 78 75 78 58 V34 L50 20 Z" fill="none" stroke="#00f2fe" stroke-width="5" stroke-linejoin="round" stroke-linecap="round" />
  
  <!-- Inner digital shield elements -->
  <path d="M50 28 L28 39 V58 C28 72 50 80 50 80 C50 80 72 72 72 58 V39 L50 28 Z" fill="rgba(0, 242, 254, 0.05)" stroke="rgba(0, 242, 254, 0.4)" stroke-width="2" stroke-linejoin="round" />
  
  <!-- Central digital node/shield shape -->
  <polygon points="50,38 60,48 50,58 40,48" fill="#00f2fe" opacity="0.85" />
  
  <!-- Intercepting lightning bolt -->
  <path d="M50 34 L38 52 H48 L44 68 L62 48 H52 L56 34 Z" fill="#ffffff" />
</svg>
